<svg id="Layer_1" data-name="Layer 1" xmlns="http://www.w3.org/2000/svg" xmlns:xlink="http://www.w3.org/1999/xlink" viewBox="0 0 837.3 703.7"><defs><style>.cls-1{fill:url(#linear-gradient);}.cls-2{fill:url(#linear-gradient-2);}</style><linearGradient id="linear-gradient" x1="3.41" y1="348.31" x2="919.53" y2="348.31" gradientUnits="userSpaceOnUse"><stop offset="0" stop-color="#0074af"/><stop offset="1" stop-color="#1dffe4"/></linearGradient><linearGradient id="linear-gradient-2" x1="579.95" y1="-318.14" x2="802.72" y2="748.92" xlink:href="#linear-gradient"/></defs><title>overlay</title><path class="cls-1" d="M13.47-4s-65.78,147.66,139,82,173,25,145.43,70.57C268,198.1,228,228.21,231.59,277.13c4.68,64.19,98.74,66.52,177.61,107.32C599.66,483,384.5,400.92,311.94,448s-28.3,82.23,72.09,78.63c216.8-7.78,144.89,65.56,108.67,98.77s-30,109.14,140.65,57.81,242.93-52.67,242.93-52.67l43.25-23.68V-4Z"/><path class="cls-2" d="M919.53-4H718.24S473.08-16.74,429.43,144.36C381.87,319.9,534,402.43,585.59,362.14S639.52,267.09,559.2,231,487,83.41,662.58,111.21s195.94,251.26,68.7,304.73-96.23,116.41,40.63,183.31,147.62,36.48,147.62,36.48"/></svg>